<mxfile host="65bd71144e">
    <diagram id="PCYlpp_mxA9zYA-M48Wo" name="Page-1">
        <mxGraphModel dx="1083" dy="584" grid="0" gridSize="10" guides="1" tooltips="1" connect="1" arrows="1" fold="1" page="0" pageScale="1" pageWidth="827" pageHeight="1169" math="0" shadow="0">
            <root>
                <mxCell id="0"/>
                <mxCell id="1" parent="0"/>
                <mxCell id="10" value="" style="edgeStyle=none;exitX=0.5;exitY=1;exitDx=0;exitDy=0;entryX=0.5;entryY=0;entryDx=0;entryDy=0;fontSize=16;" parent="1" source="3" target="4" edge="1">
                    <mxGeometry relative="1" as="geometry"/>
                </mxCell>
                <mxCell id="3" value="Начало" style="ellipse;fontSize=20;" parent="1" vertex="1">
                    <mxGeometry x="340" y="140" width="130" height="50" as="geometry"/>
                </mxCell>
                <mxCell id="67" value="" style="edgeStyle=none;exitX=0.5;exitY=1;exitDx=0;exitDy=0;entryX=0.5;entryY=0;entryDx=0;entryDy=0;" edge="1" parent="1" source="4" target="66">
                    <mxGeometry relative="1" as="geometry"/>
                </mxCell>
                <mxCell id="4" value="x = (b - a) / 2" style="rounded=0;fontSize=20;" parent="1" vertex="1">
                    <mxGeometry x="328.75" y="223" width="152.5" height="48" as="geometry"/>
                </mxCell>
                <mxCell id="12" value="" style="edgeStyle=none;exitX=0.5;exitY=1;exitDx=0;exitDy=0;entryX=0.5;entryY=0;entryDx=0;entryDy=0;fontSize=16;" parent="1" source="6" target="7" edge="1">
                    <mxGeometry relative="1" as="geometry"/>
                </mxCell>
                <mxCell id="6" value="f1 = f'(x)" style="rounded=0;fontSize=20;" parent="1" vertex="1">
                    <mxGeometry x="356" y="378" width="98" height="50" as="geometry"/>
                </mxCell>
                <mxCell id="41" value="" style="edgeStyle=none;exitX=1;exitY=0.5;exitDx=0;exitDy=0;entryX=0;entryY=0.5;entryDx=0;entryDy=0;fontSize=16;" parent="1" source="7" target="38" edge="1">
                    <mxGeometry relative="1" as="geometry"/>
                </mxCell>
                <mxCell id="46" value="" style="edgeStyle=none;exitX=0.5;exitY=1;exitDx=0;exitDy=0;entryX=0.5;entryY=0;entryDx=0;entryDy=0;fontSize=16;" parent="1" source="7" target="69" edge="1">
                    <mxGeometry relative="1" as="geometry">
                        <mxPoint x="404" y="573" as="targetPoint"/>
                    </mxGeometry>
                </mxCell>
                <mxCell id="7" value="|f1| &lt; ε " style="rhombus;fontSize=20;" parent="1" vertex="1">
                    <mxGeometry x="345" y="452" width="120" height="80" as="geometry"/>
                </mxCell>
                <mxCell id="20" value="да" style="text;strokeColor=none;fillColor=none;align=center;verticalAlign=middle;rounded=0;fontSize=16;" parent="1" vertex="1">
                    <mxGeometry x="465" y="462.5" width="60" height="30" as="geometry"/>
                </mxCell>
                <mxCell id="42" value="" style="edgeStyle=none;exitX=0.5;exitY=1;exitDx=0;exitDy=0;entryX=0.5;entryY=0;entryDx=0;entryDy=0;fontSize=16;" parent="1" source="38" target="39" edge="1">
                    <mxGeometry relative="1" as="geometry"/>
                </mxCell>
                <mxCell id="38" value="x* = x&#10;f* = f(x*)" style="rounded=0;fontSize=20;" parent="1" vertex="1">
                    <mxGeometry x="528" y="462.5" width="132" height="59" as="geometry"/>
                </mxCell>
                <mxCell id="43" value="" style="edgeStyle=none;exitX=0.5;exitY=1;exitDx=0;exitDy=0;entryX=0.5;entryY=0;entryDx=0;entryDy=0;fontSize=16;" parent="1" source="39" target="40" edge="1">
                    <mxGeometry relative="1" as="geometry"/>
                </mxCell>
                <mxCell id="39" value="x*, f*" style="shape=parallelogram;perimeter=parallelogramPerimeter;fixedSize=1;fontSize=20;" parent="1" vertex="1">
                    <mxGeometry x="518" y="538" width="152" height="60" as="geometry"/>
                </mxCell>
                <mxCell id="40" value="Конец" style="ellipse;fontSize=20;" parent="1" vertex="1">
                    <mxGeometry x="529" y="615" width="130" height="50" as="geometry"/>
                </mxCell>
                <mxCell id="68" value="" style="edgeStyle=none;exitX=0.5;exitY=1;exitDx=0;exitDy=0;entryX=0.5;entryY=0;entryDx=0;entryDy=0;" edge="1" parent="1" source="66" target="6">
                    <mxGeometry relative="1" as="geometry"/>
                </mxCell>
                <mxCell id="66" value="f2 = f''(x)" style="rounded=0;fontSize=20;" vertex="1" parent="1">
                    <mxGeometry x="352.5" y="304" width="105" height="50" as="geometry"/>
                </mxCell>
                <mxCell id="70" value="" style="edgeStyle=orthogonalEdgeStyle;exitX=0.5;exitY=1;exitDx=0;exitDy=0;rounded=0;" edge="1" parent="1" source="69">
                    <mxGeometry relative="1" as="geometry">
                        <mxPoint x="397" y="366" as="targetPoint"/>
                        <Array as="points">
                            <mxPoint x="405" y="642"/>
                            <mxPoint x="304" y="642"/>
                            <mxPoint x="304" y="366"/>
                            <mxPoint x="392" y="366"/>
                        </Array>
                    </mxGeometry>
                </mxCell>
                <mxCell id="69" value="x = x - f1/f2" style="rounded=0;fontSize=20;" vertex="1" parent="1">
                    <mxGeometry x="335" y="582" width="140" height="50" as="geometry"/>
                </mxCell>
                <mxCell id="71" value="нет" style="text;strokeColor=none;fillColor=none;align=center;verticalAlign=middle;rounded=0;fontSize=16;" vertex="1" parent="1">
                    <mxGeometry x="402" y="535" width="60" height="30" as="geometry"/>
                </mxCell>
            </root>
        </mxGraphModel>
    </diagram>
</mxfile>